/* XPM */
static char *Free_Converter_com_br1_40712023[] = {
/* columns rows colors chars-per-pixel */
"64 64 67 1 ",
"  c #7E4D38",
". c #8A4635",
"X c #854C36",
"o c #8C4C36",
"O c #854D3A",
"+ c #8D4D3B",
"@ c #914F3C",
"# c #845037",
"$ c #8E5137",
"% c #86513D",
"& c #8D513D",
"* c #8A583F",
"= c #91523E",
"- c #864E40",
"; c #8C4E41",
": c #924F41",
"> c #865241",
", c #8C5442",
"< c #865941",
"1 c #8D5946",
"2 c #8D5649",
"3 c #855B4D",
"4 c #8D5B4A",
"5 c #945543",
"6 c #985645",
"7 c #955945",
"8 c #995946",
"9 c #955649",
"0 c #985749",
"q c #935B4B",
"w c #995949",
"e c #865D50",
"r c #8C5E51",
"t c #935C51",
"y c #8C614E",
"u c #92604D",
"i c #876152",
"p c #8D6353",
"a c #8D6855",
"s c #8E6759",
"d c #8D6B5C",
"f c #936355",
"g c #986757",
"h c #916855",
"j c #936659",
"k c #986358",
"l c #936B5D",
"z c #996A5C",
"x c #8E705F",
"c c #95705E",
"v c #8E6D60",
"b c #936E62",
"n c #996F64",
"m c #8F7262",
"M c #8D7968",
"N c #957265",
"B c #9A7366",
"V c #947867",
"C c #957469",
"Z c #9B746A",
"A c #957A6C",
"S c #9B796C",
"D c #967E71",
"F c #9A7D72",
"G c #A0766F",
"H c #968171",
"J c #9A8174",
/* pixels */
"tb86777w7wwwwNw8uu8788778zg878uwwwwww7B77wwwwwwwwwnkwwwwwwwwwwqZ",
"tN77,75,7777yNqw=u77wqqqqljwq78wqqqqqqCtqwqqutttqtnhuqtufqqqftpA",
"GSSSSSZACZSSSSSFGGGJAVSZZGZASGSZDBZSBGGZSSGVJZZZSZZGZZGZAAZVZZBB",
"677798wN7ww78886888nwww7ww6wwwwqNww88088ww6wBqwwwwwww88tfzwwwwqw",
"7778767N66777667778Gq0w99979667qB7ww86686w7wZqww0ww7w9w9tb78qw79",
"577887qN77767666778cq709777769wwbw778688796wB97700www800kb7w9070",
"5172912N2q117qq2qqqNrq77qq7wqqw4Nqqwq44q9qqwB4wqq7qqqq9tgbwqrqqq",
"ZJZZVSZZBZSZZFBBZZZZZZGVVGFZBBZZZZZZZCFZZGZFZZBZGGFZBnBZZBBZZBZJ",
"qc66575587566n57888876776tg6668=665667b906666668wwgg77766976067n",
"7c755565768=6N758=8676778fg56=66555677b9755757667wgl75756079679B",
"ql55=7575655=N75=u=877qw6fg5=665655677N75766756678gl67996999579B",
"4c,1177192297N17=uuuq7qu7ghqqu7u2q77u1Nqq42q4qqqqqllqqqqqqqtqytS",
"SCZZBSGJBZGBZGVBBBBJHGGGBBGBSGcBFBZZGBSBVBGBGVZZSSSSnZBVCDBCZZZZ",
"77766==c665675668=8zu==85656=6=8b57766767688Bu06678670w7qb957799",
"6=55665n655=5=:5888zu==8=8=6=877N555565=768=zq8765756667qC957576",
"5656557b775=5675=8=zu=8=8=7=6==*N6=56=66=6=8zf8767776760qb576756",
",4,2q11N7,1,4447217dy274quq2q1q1cq11u117q7qqNfquqq444444pCtrr9q4",
"VJBBZCVVBBZFSFCCVZVCSVZSGFJZZZSSZVSZVZJVBGVBZZGBBSSJBBZBZCbnnZZF",
"7N75656=66577B27777756767qc6=67=797666B55665756777tn666:6695659B",
"9b555557=5556b96575555658qc=77755577=7C,555766=7=7wl:6665,75665N",
"9c7==55=66575N,57=7657556wc755qw777577B76557w665=7ul77775757577N",
"<d,>,1,7,9129N1717125,,5=ux1121,,27127N17,,1,2444q4c42244244222N",
"CSASZCCJZZZVZZCBBVBSACBCGGSGVGBZCBVBZBZVBVZVFDZBBBSSZZZZNJZnBBZS",
"5==5557c55=55557=65gy5558=====55N55756=66557gh77776657797C=65775",
"5====55b7,@55*==565kp5==6=56=557b,6===66=6==gg557=5555797C765755",
"&==5=5&l&55==55====ff=65=55=5==5b5=56==6==67fh577,5555579N995555",
"**>,*=,c,<,,*>,,5,5pf5,5,=&***,5N,1,,7517175ha1112,124724C44q224",
"NHVSVVZZCNZCSJCBBBBZnGVBZBFZZZZZZZBVZVSBBBVBBGBBZBCFCNBnBZBnNBnH",
"5b======&==5:b1,5=====5=55b=55555=5==5z76==6=655,57c,55555*5=55l",
";c=$==@55=@5@l,5=5====5==5b@==5==5==55l,==6====55=,N:5:55======z",
",c======,@=&,l,&=&=*===:=,b,=====*==55z75===6===55*l7,57==&===7l",
",x*%=**++,,&&v2,%&,,5*=,&<b,*,&&&*,,,,d2,1&*17,&,*1d,,>,,,*1111l",
"NCBNNNCDNNNNNBNcNNBCSBBNVZBBBBBNHCBBBBZBnZZbSCBCnBBZBnCnBFbbnnnn",
"=+@@===l==@@======:2j=@===5@==55N=,5:=5555:5fj556::5::5=&N;5::,5",
"=o+==@=l&+$@====&@:qh@====@=@==5c5==5:@:5@5@qh==5=5:55@,=N,+=:@5",
"==@$@@&b&&@$@@====@qh5===$======N=5&@@5=:@;5fj==@5@5@5,55b:55==@",
"#*,&%&&v%>;;&+%%%+,3h,,,=&*&*&&*N>,,,,,,,&,,fj,,,,,1,1,11N42,11,",
"NSNbNBBNNBVCCDNCNBNZVNZnNNFNnBBZCBBBZZFCBnBNZZVNCZSFBVBBNZbNbnCS",
"+l++@+&++=@@;j1&;@+5=@@&&,l5==&55:5:5:l,==:,5:5555&b65&,5&5&@55j",
"+lo=$o$=+=&++j2&++@+=@==@;l;=&===++@5,g,===@5:+5,=,N&=5&&@==&+5j",
"+l+o++++%+$++s,+$+$@====@&g+5&+===@=,=l2===*&=5,,+=N,&=,=5,==&5g",
">v%%&*%>>%&&&l3,%%%%&$&%&*N&&,>,%;,,,,d3,>&*,,,%&,&N44,,,,222>,d",
"CBbBNNNDNlNNNACNNNVAScBNNNBBCCNNFCCZCCCNNZBZCDZNCZZZZZBZZFCbnnBB",
"+++=+,&v%+@++++@@@@qa==$@=@&*@:=N;5&=5,=5@=,1j,@;&:,+55==n&&5=+,",
"@%o+@@+b$++@$@@++@=4h@+=@+=+&5@&N,5&&@&55+=&1l5@&+@@=+=&@l;:+@+&",
"+o+++o&b+++$++@+++@2f+@@=+@&&+@=n@5,&5=:=;==4d,,5@&@@&+@@b,+@@@@",
"#OOOOO>m%OOO%+;#oO+4d$+&%,;,,+*,N,,%*;&;&,%%1d,>%-,+&;O*1d><,,,>",
"NANCNCCZNNCNNVCbBbVNNCBbBBFCCZCZZCBBBCAACCZCZZAZBCCDbVCCZZBbNbbC",
"+d++++&o&+&&&h4++++++;=@=;l*&@==&@@=5;jt5@&=&5=,;+,b;5&5+;:;==+j",
"+d+o+o@&+&++@u1+++++@+oo+5l@@+@&=&=&@,fr+5@;=@@=;5+b;5@++=:+@++f",
"Odoo+o++o++++a3%++@&+$@&@,N+,:+===+5:+jr5++,+5,@@+;N&&++=&+,&++k",
"Ov OO #OO%X+Oi3O%OOO%%+++%m&-,#%++>*>%i4+>>-O->&><>m>;>,%O-;&%Op",
"bCbbnNCDCNbNCCNCNCNNHZZBBCZVAZZZDCCCVBZCCZAACDZACCZFCZCCCDNCNbNZ",
"++@o+++jO+@o+@++++%&l++++$%&%&@=b>;:+&,+;&@,,d&++;@@;;;++b-+++++",
"++.+oo+lO+@o+++o+o$-d++@o++o$+@&l>@+$@+&+@@@,l++;+@++++++j>+++++",
"+.+ooood#o..+oo++o$&lo++&++&++o+l&++++++o+++;v+++++++++++v++oo+o",
"OOOOXXOdOO+OXXOXOOOOlOO#OOOOO++Od>+%O+OOoO+--dOOOO.OOOO+Os>OOOO ",
"vMvbmbNNNNbbNCMNBbbCCBNCbCDmCCCNnCbNCVCCCCCNCCCNNCbCNNbCBCbbCCND",
"osX.o.+oo++++44++++++&++++l&++,+++++++rr&;;+;;++++,v+++&;++++++r",
"Xvo..+o.o..+o4iOooo+o++o++l;+O+o++++++rp+++o++@o+++d++++++++O%+4",
".sX.X..+o.ooo4y++oooo+++;+b.+ooo+O+.++re++++++o++++vOo++o+++oooy",
" v  OOOOOXOXX3iXXOXo.OOo+OvOOOXoOO.XOOee+OOXOO OO Od#OO#XOOO##%3",
"vbvvvbbAmbvNbNNNbmbvANbNbbCbbNbbCCbCCNDCCACCCACCCCNMNNNCNAMmNCNC",
".+..+Ooh-Xoo+.Xo+%O;s+++++++O++-p>+;++;+Oo+;+d+O+++++;>+&l2-+;++"
};
