/* XPM */
static char *Free_Converter_com_1_13083239[] = {
/* columns rows colors chars-per-pixel */
"64 64 112 2 ",
"   c gray55",
".  c #8D8D8D",
"X  c #8E8E8E",
"o  c gray56",
"O  c #909090",
"+  c gray57",
"@  c #929292",
"#  c #939393",
"$  c gray58",
"%  c #959595",
"&  c gray59",
"*  c #979797",
"=  c #989898",
"-  c gray60",
";  c #9A9A9A",
":  c #9B9B9B",
">  c gray61",
",  c #9D9D9D",
"<  c gray62",
"1  c #9F9F9F",
"2  c #A0A0A0",
"3  c gray63",
"4  c #A2A2A2",
"5  c gray64",
"6  c #A4A4A4",
"7  c #A5A5A5",
"8  c gray65",
"9  c #A7A7A7",
"0  c gray66",
"q  c #A9A9A9",
"w  c #AAAAAA",
"e  c gray67",
"r  c #ACACAC",
"t  c gray68",
"y  c #AEAEAE",
"u  c #AFAFAF",
"i  c gray69",
"p  c #B1B1B1",
"a  c #B2B2B2",
"s  c gray70",
"d  c #B4B4B4",
"f  c gray71",
"g  c #B6B6B6",
"h  c #B7B7B7",
"j  c gray72",
"k  c #B9B9B9",
"l  c gray73",
"z  c #BBBBBB",
"x  c #BCBCBC",
"c  c gray74",
"v  c gray",
"b  c gray75",
"n  c #C0C0C0",
"m  c #C1C1C1",
"M  c gray76",
"N  c #C3C3C3",
"B  c gray77",
"V  c #C5C5C5",
"C  c #C6C6C6",
"Z  c gray78",
"A  c #C8C8C8",
"S  c gray79",
"D  c #CACACA",
"F  c #CBCBCB",
"G  c gray80",
"H  c #CDCDCD",
"J  c #CECECE",
"K  c gray81",
"L  c #D0D0D0",
"P  c gray82",
"I  c #D2D2D2",
"U  c LightGray",
"Y  c gray83",
"T  c #D5D5D5",
"R  c gray84",
"E  c #D7D7D7",
"W  c #D8D8D8",
"Q  c gray85",
"!  c #DADADA",
"~  c gray86",
"^  c gainsboro",
"/  c #DDDDDD",
"(  c gray87",
")  c #DFDFDF",
"_  c gray88",
"`  c #E1E1E1",
"'  c #E2E2E2",
"]  c gray89",
"[  c #E4E4E4",
"{  c gray90",
"}  c #E6E6E6",
"|  c #E7E7E7",
" . c gray91",
".. c #E9E9E9",
"X. c #EAEAEA",
"o. c gray92",
"O. c #ECECEC",
"+. c gray93",
"@. c #EEEEEE",
"#. c #EFEFEF",
"$. c gray94",
"%. c #F1F1F1",
"&. c gray95",
"*. c #F3F3F3",
"=. c #F4F4F4",
"-. c gray96",
";. c #F6F6F6",
":. c gray97",
">. c #F8F8F8",
",. c #F9F9F9",
"<. c gray98",
"1. c #FBFBFB",
/* pixels */
"@.*.-.-.%.M o.+.@.@.#.=.-.-.-.-.-.-.-.-.*.#.=.} G ~ +.@.@.+.=.-.-.-.-.-.-.-.-.&.#.*.;.B | %.+.+.+.$.%.#.%.=.-.&.*.&.@.=.-.-.-. .",
"+.+.+.$. .G ' %.=.%.@.*.-.-.-.-.-.-.-.*.@.#.&. .G ) &.-.*.+.%.-.-.-.=.-.-.-.=.$.+.%.$.H o.=.$.#.&.-.*.@.@.%.=.%.@.+.#.-.-.-.-.[ ",
"} | } { ( G ] &.X.] { ..O.O.X.[ | X.o.X.| [ [ ) G R X...} } } ' ( _ [ ] { _ ) ) ' ] ' F / -.%.@.#.$.$.#.@.+.@.+.o.o.X.o.O.#.=.| ",
", 4 3 7 w G y 5 2 2 8 7 8 9 9 - = < 8 8 4 = - < J g $ = , 3 6 8 5 7 7 , 8 7 6 8 8 : > B d 6 w u r r e q e 4 2 e , - = & , 8 t t ",
"Y U I U Y R U L J J G G J G K Y I H ^ ~ U U U Y U U U U Y T T T R ~ / U G  .o.' ` ' ' ` ` ' ` _ } ] | } ..@.{ G ` +.#.#.@.@.+.@.",
"+.+.+.$.*.-.=.$.@.+.+.@.+.@.@.%.=.W $.@.@.&.=.*.%.&.*.*.$.-.=.-.-.=.$._ G +.+.+.=.=.=.-.=.-.-.=.-.-.-.-.-.$.X.G ..%.@.+.@.@.+.@.",
"-.=.*.-.-.-.-.-.-.-.=.%.O.+.#.&.-.U +.+.+.#.#.$.*.-.-.-.-.-.-.-.-.%.$.) D +.+.+.+.+.$.&.-.-.-.-.=.-.-.-.%.#. .H { $.+.@.+.+.+.+.",
"-.-.-.-.-.-.-.-.*.#.#.O.+.*.-.-.&.M @.+.$.+.$.-.-.-.-.-.-.-.-.=.$.$.-.( D _ +.$.#.#.-.-.-.&.%.*.*.-.=.#.#.-. .G ..$.+.+.+.%.%.$.",
"-.-.-.-.-.-.-.-.&.$.O.O.+.+.+.$.} C &.*.-.#.@.*.-.-.-.-.-.-.-.&.@.#.%.` G o.=.-.$.+.&.-.-.*.#.&.-.-.=.$.+.#.o.G +.=.$.#.*.-.*.$.",
"&.*.%.$.$.$.%.+.o...o.X.+.@.@.O.] G ] o.} ` ] ! ! ^ ^ ( ( R R E Y T _ K H F Q U J F G M N N B A N m M n M F N Z / -.@.o.O.#.#.@.",
"w 4 ; ; < $ > < 0 9 > 2 5 5 4 ; r H q 8 6 4 5 0 j n j i h t p u w 5 6 d G c s d s a s f M z a s s h h d a s f H d r q ; 9 u q i ",
"E Y ^ ( W G ( | ' _ ) ^ ^ ^ / ) ' [ ` ' [ { o. .J ! ] [ _ ^ ` [ ' ^ ~ ! Q ! ! ! ~ ( [ Q Q [ / ~ ! Q Q Q ! ! ! ^ ^ ^ ( / {  .Y ^ ",
"-.-.-.%.} H { O.+.&.-.-.=.=.=.-.*.=.-.-.-.-.&.+.P ! $.$.@.@.$.=.-.=.&.$.#.@.+.+.+.O.%.{ } @.+.%.=.=.*.*.*.=.*.*.=.-.-.-.*.@.P W ",
"-.-.&.$.{ K } +.+.+.+.#.%.-.-.-.-.-.-.-.-.*.#.*.S J -.-.-.-.-.-.-.-.-.-.-.*.#.@.$.$.=.] ' +.+.+.@.@.%.=.-.-.-.-.-.-.-.*.#.&.H W ",
"-.%.$.=. .H W +.#.$.@.-.-.-.-.-.-.-.-.=.%.@.=.-.V T -.-.-.-.-.-.-.-.=.#.@.+.+.#.&.*.-.~ U +.@.$.+.-.-.-.-.-.-.-.-.-.*.@.*.-.J A ",
"*.#.@.%...J ' *.-.&.+.$.-.-.-.=.=.-.-.-.%.@.$.#.K Q =.-.-.-.-.-.-.-.-.=.&.#.+.+.+.+.#.! Q *.-.*.@.$.-.-.-.=.*.-.-.-.&.@.#.@.T U ",
"W T Y T J G F E E Y T Y J Z F L K L F Z F K I L B D [ | | ( { [ Q W Y J P R R Y Y Y R D D E E Y L L C N M C H S V N M V L K V A ",
"s d t 6 t G b 9 q u d d d a a s p s s d f s y t A Z 1 6 6 4 5 7 5 i s s a g s p u e e Z B a g f a s s h j s d d d f s a f d C F ",
"{ ~ ! ! ! ~ ! ! ~ / ( ^ ( ( [ } W G @.%.X. ..... . .X.X. .@.X.+.+.&.*.o.J ' | ' _ ( / / ( ( _ ` [ ` ' [ } o.} G Y { { } } [ { [ ",
"+.@.=.-.-.*.*.-.=.*.-.-.-.-.=.#.( H +.+.+.*.*.*.*.-.-.-.-.-.-.-.-.=.$.X.G o.+.+.*.-.=.=.=.-.-.*.=.-.-.-.-.%.+.A / *.+.+.#.$.#.#.",
"+.+.+.@.$.*.-.-.-.-.-.-.-.-.$.%.( S O.+.+.+.+.&.*.-.-.-.-.-.-.-.=.$.%.| H ..+.+.+.+.$.&.-.-.-.-.-.-.-.-.&.#.%.C ~ &.+.+.+.+.+.+.",
"+.$.@.%.-.-.-.-.-.-.-.-.*.#.$.-.) G ( @.&.$.#.-.-.-.-.-.-.-.-.*.@.#.-.X.G W +.$.$.@.-.-.-.-.-.-.-.-.=.$.@.=.@.H _ &.+.+.@.%.&.$.",
"-.-.@.@.*.-.-.=.&.-.-.-.=.#.@.#.` G X.-.-.#.+.&.-.-.-.%.&.-.-.-.%.+.+.O.G ' -.-.%.@.%.-.-.-.&.*.-.-.-.%.+.@.+.H ` -.&.$.&.-.*.@.",
"W J F P Z V N n N M n M N n n S b F k V c k l d e r q e y w q y q q d e C c M n m n m g i f v b z j s f c n l B N _ ^ ^ ^ ~ ^ ~ ",
"s a p f l n M b a a z m n z d a v G C N m n n M Z G P B m H L H G A Z D L K B B D D L K N b n N n b n b n m m H Z g a f p p s g ",
"-.*.#.@.$. .H #.O.}  .O.%.#.@.@.+.+.O.O.@.$.$.O...J ,.&.;.;.>.:.:.=.#.$.*.<.<.<.,.-.*.#.^ I  .'  ...| { { ] ] ' { .. .X.| | ..| ",
"-.-.-.-.=.-.F *.*.$.%.=.;.;.;.;.;.;.;.;.;.;.;.=.=.Z >.>.;.,.<.<.<.<.>.;.=.&.>.<.<.<.<.%._ ! ,.<.<.<.<.<.<.>.*.&.*.-.,.<.<.<.:.#.",
"*.-.-.-.-.*.N O.@.@.@.@.-.=.*.;.;.;.;.;.;.;.;.;. .D &.;.>.<.<.<.:.:.<.<.:.$.*.,.<.<.:.&.` E ,.,.<.<.<.<.<.<.<.<.;.&.:.<.<.<.:.@.",
"+.*.-.-.-.&.L %.@.$.=.;.;.$.$.;.%.$.=.#.#.;.;.;./ G $.#.$.*.=.&.#.#.$.&.%.#.#.&.:.<.>.&...E *.%.-.;.;.*.#.%.*.=.&.#.#.;.<.,.=.$.",
"@.*.=.-.-.$.K ;.#.#.+.@.=.&.*.=.@.+.+...o.*.;.;.[ R ,.;.*.&.#.$.:.>.>.:.-.&.%.%.%.>.,.,.@.' :.&.$.#.#.#.;.-.-.=.&.#.#.#.$.;.>.,.",
"/ ~ Q Q ) ) N N Z C n j h s i a u y y t w i l x v V v D m f p s b S K H K K L L K K J F M S H L G H S D G L (  ._ Q ' } Q E _ { ",
"f g a r 7 0 H b z n v b M S J J J J G S V M n D G G N n b Z F N m b m m m M m m m m m b B D n x m n m m m c s a a f a k f f a p ",
"' ` ] } | } ` ( ( / ! ! / / ' } Q ( O.| ` ` [ ` ` ` ' ' } [ { |  .@.O.K { +.+.@.%.=.-.*.+.X.X.| | .. .X.&.&.G @.%. ...X. .| | ..",
"$.#.@.%.=.-.-.*.%.$.#.+.@.+.+.&. .{ +.+.%.=.*.=.-.-.-.-.-.-.-.-.-.%.+.K @.=.*.&.=.*.-.-.-.-.*.*.%.+.+.+.%.-.H +.+.@.*.*.*.=.-.-.",
"-.-.-.-.-.-.-.-.-.-.*.#.@.%.=.-._ _ +.+.+.+.#.&.-.-.-.-.-.-.-.-.&.#.=.G o.-.-.-.-.-.-.-.-.-.*.%.@.@.*.-.-.=.m O.+.+.+.+.%.*.-.-.",
"-.-.-.-.-.-.-.=.#.+.@.+.#.$.*.-.~ J +.%.&.+.=.-.-.-.-.-.-.-.-.$.+.=.-.L +.-.-.-.-.-.-.-.-.&.#.+.+.+.+.#.%.} F ) @.%.$.#.-.-.-.-.",
"-.-.-.-.-.-.-.-.-.*.$.+.+.+.+.@.^ / -.-.%.+.@.-.-.-.&.%.-.-.-.*.+.@.+.Y | &.=.*.&.%.&.*.-.-.-.=.@.+.+.+.+. .J o.-.-.#.+.%.-.-.-.",
"' R Y R R U P B V V V F U Y I J B z m l f i z t r w r i q w w w 9 r u v f M f e r u e q - > 3 ; - 8 9 8 6 t G x M M b M c a i g ",
"5 9 u 7 5 y l N V n h i a s d f G J n n m S L J K ^ ~ Q ^ ( ) / Q Y Y ( Q U U E Y J P ! H Y W K L P ^ ^ E T T F z n Z H U P G n ",
"o...+.&.#.I %.$.@.$.%.&.$.$.%.%.#.=.&.-.-.-.&.} J =.&.@.#.%.%.$.%.*.*.=.-.-.-.-.-.=.*.%.) O.;.=.*.;.;.;.;.;.;.;.;.;.;.;.-.#.*.E ",
"+.+.@.&.=.Y +.+.+.%.%.%.&.-.-.-.-.-.-.-.-.*.#.[ G %.+.+.+.+.+.+.+.+.+.+.%.-.-.-.-.-.-.-._ { *.@.@.$.-.;.;.;.;.;.;.;.;.;.;.;.;.K ",
"@.=.-.-.o.A o.+.+.+.@.=.-.-.-.-.-.-.-.-.*.#.*.] G %.+.+.+.+.#.@.+.$.&.*.=.-.%.&.-.-.-.-.Y ^ @.+.#.&.=.=.#.;.;.-.-.*.=.;.;.;.*.V ",
"+.+.#.&.( S ` $.=.$.#.=.=.-.-.-.-.-.-.&.+.$.*.| J =.%.+.+.&.-.&.$.%.=.*.#.@.@.%.-.-.-.-.! o.+.@.%.=.;.&.@.;.&.+.&.%.+.-.;.;.o.G ",
"O.O.+.+.) G o.-.*.O.+.$.-.-.*.#.%.*.*.=.$.@.@.} A *.-.&.%.%.&.&.#.+.@.#.@.+.@.@.$.%.*.-.^ X.#.o.+.+.$.-.#.%.O.O.O.o.` O.*.;. .G ",
"> 7 4 8 a G 0 q 1 1 3 ; < 5 1 O . & 3 3 ; o @ % G v I V j i p a d a V c a a 8 w s g d a m a g u 2 & , 7 q 8 8 q q 0 7 1 - t c E ",
"H G G H G G G J G J J G G G G G G G G G H G G J K P D U T C H R U V I I Y U U U U T T K E W T E R / ) U G U R U L J G G L E Q ! ",
"@.....X... ...X...+.O.+.@.#.=.&.E O.-.>.<.:.;.=.$.%.;.,.,.:.=.%...! $.@.@.&.*.&.%.&.*.%.@.=.=.-.-.-.$./ F $.#.+.$.&.&.%.&.%.%.#.",
"+.$.*.&.&.=.=.&.*.-.-.-.-.-.&.@.W +.<.<.<.<.<.<.:.;.*.-.>.<.<.:. .W @.+.+.$.$.$.*.-.=.&.*.-.-.-.-.%.#.( G +.+.+.$.$.$.%.-.-.=.-.",
"+.+.+.$.=.=.*.*.-.-.-.-.-.&.#.-.I ..:.<.<.<.:.:.,.<.*.%.:.<.<.=.X.H +.+.+.+.$.-.-.=.*.*.-.-.-.-.&.#.=./ B X.+.+.+.@.=.-.-.-.=.-.",
"%.=.+.&.-.&.=.-.-.-.-.-.$.+.*.*.T O.$.%.&.*.$.$.$.$.$.#.$.;.<.;.;.m #.%.-.#.$.=.-.&.=.-.-.-.-.%.+.%.*._ G ` $.=.$.#.=.-.-.-.-.-.",
"-.$.+.#.;.:.=.%.@.&.=.*.=.#.+.@.E $.>.=.%.$.;.<.<.>.-.*.=.=.,.<.>.C *.=.&.+.@.*.-.=.&.@.&.=.=.=.@.+.@.` G o.-.=.@.@.*.-.=.=.#.$.",
"3 > = 0 < 5 4 > % & 1 4 4 > & # s w q 9 q w 0 e u j p i h p i s d F 9 w 0 q 6 > . o + 3 , +   . & < t 8 G 0 5 * % > , 3 3 2 @ X ",
"L I Y R / I J ] ) )  . ._ ] ' ] ` /  ...[ [ ]  .X.E G Q ~ ! Q ^ ( ( I A H U E Y Y Y W ^ T H ~ ! Y Y D I I I U Y T Y I T T Q / P ",
"=.-.-.-.%. .G =.,.<.<.<.<.<.,.*.$.&.;.,.<.<.<.>.%.' U $.@.+.+.$.*.-.=.%.$.@.+.+.+.+.+.&.#.! $.@.@.&.*.&.%.&.*.&.$.-.=.-.-.=.$.( ",
"-.-.-.&.#.{ H @.<.<.<.<.<.<.<.<.<.>.&.:.<.<.<.<.%.( D -.-.-.=.-.-.-.-.-.-.-.-.$.+.#.%.=.O.! +.+.@.$.$.$.*.-.-.-.-.-.-.-.-.&.$.) ",
"-.-.*.#.=.[ G X.=.;.<.<.,.&.*.;.:.:.#.#.-.<.<.,.#.{ H ;.-.-.-.-.-.-.-.-.%.#.@.+.#.&.=.-.} H +.+.@.+.$.-.-.-.-.-.-.-.-.-.&.$.-.^ ",
"-.&.@.#.*.{ G -.&.#.$.#.#.%.%.%.%.#.#.#.#.&.,.<.-.=.I =.-.-.-.-.-.-.-.-.*.%.#.+.+.+.+.$.` m $.&.-.#.$.=.-.-.-.-.-.-.-.%.@.$.&._ ",
"X.o.| ..@._ G *.=.%.%.O.o.*.;.,.1.,.:.;.:.:.,.<.<.[ F o.%.#.| ..X.| ..' ! ^ ` { { [ [ ] Y F $.=.$.X.| X.X.X. .{  .......} { X.! ",
"- ; 4 6 $ 2 D 4 s w * 1 * 1 y t 3 6 w 0 5 0 y e 4 e S 2 4 < 2 1 7 * 5 5 w y 5 6 9 q 6 > k F < ; 4 3 7 , @ & % 7 5 $ + $ % 3 3 q ",
"! ^ / ( ( ! Q Q Q R T Q R ( ( Y ! } ' / ~ ! ~ ! Q ~ / ' ( / ) [ | { K ( ] Q W ! } | { _ ) / / ( ( ) ` } ` _ / H ] { _ ^ ! ~ ~ ! ",
"@.@.$.=.-.=.&.$.#.@.+.+.+.+.&.| } +.+.%.-.-.=.=.=.-.*.*.-.-.*.-.&.@.K +.;.=.%.=.;.;.;.;.;.;.;.;.;.;.;.;.-.%.;.Y +.+.+.=.-.=.*.*.",
"-.-.-.-.-.-.-.-.-.=.#.+.$.&.-.] ' +.+.+.+.@.%.=.-.-.-.%.&.%.-.*.@.*.H / %.+.@.+.$.;.-.-.;.;.;.;.;.;.;.;.;.;.&.B @.+.+.@.@.#.&.&.",
"-.-.-.-.-.-.=.&.#.@.@.#.&.=.-.( P +.#.%.+.=.-.-.-.-.-.*.&.=.%.+.=.-.K ] +.@.&.*.-.;.$.#.-.*.*.-.%.%.&.;.;.;./ B } +.$.@.$.-.-.*.",
"-.-.-.-.-.-.-.*.&.$.@.O.+.+.$.! ! *.-.&.+.@.-.-.-.*.&.*.=.-.*.+.@.@.T $.$.+.@.#.&.;.#.&.-.$.@.@.$...*.;.;.;.' G | *.-.$.+.&.-.*."
};
