/* XPM */
static char *Free_Converter_com_beli_kirpich_71984146[] = {
/* columns rows colors chars-per-pixel */
"64 64 99 2 ",
"   c #666762",
".  c #6B6A65",
"X  c #73746F",
"o  c #777673",
"O  c #787772",
"+  c #777873",
"@  c #7B7A74",
"#  c #7F7E7A",
"$  c #817E77",
"%  c #817F7A",
"&  c #7F807A",
"*  c #84837D",
"=  c #8A867E",
"-  c #848481",
";  c #898782",
":  c #8D8B85",
">  c #8E8D8A",
",  c #928E86",
"<  c #918E8A",
"1  c #939087",
"2  c #94928C",
"3  c #9A948D",
"4  c #9C988F",
"5  c #969592",
"6  c #9A9692",
"7  c #979893",
"8  c #9C9A94",
"9  c #9E9C99",
"0  c #A29C94",
"q  c #A29E9A",
"w  c #A4A096",
"e  c #A9A196",
"r  c #A4A29C",
"t  c #AAA49D",
"y  c #ABA99F",
"u  c #A6A4A1",
"i  c #AAA6A2",
"p  c #A6A8A3",
"a  c #ACAAA4",
"s  c #A9A7A8",
"d  c #ADACAA",
"f  c #B1ACA6",
"g  c #B2AEAA",
"h  c #AFB0AB",
"j  c #B5B1A7",
"k  c #B4B2AD",
"l  c #B9B4AD",
"z  c #BCB8AF",
"x  c #B5B4B2",
"c  c #B9B6B2",
"v  c #B7B8B4",
"b  c #BBBAB5",
"n  c #B7B5B8",
"m  c #B9B7B8",
"M  c #BDBCBA",
"N  c #C0B7AE",
"B  c #C1BDB5",
"V  c #C1BEBA",
"C  c #BFC1BC",
"Z  c #C3C0B5",
"A  c #C8C1B7",
"S  c #C4C2BE",
"D  c #C9C4BE",
"F  c #CAC8BE",
"G  c #C1BFC0",
"H  c #C5C4C2",
"J  c #CAC6C2",
"K  c #CCC9C5",
"L  c #C9C7C8",
"P  c #CDCCCA",
"I  c #D1CCC6",
"U  c #D2CECB",
"Y  c #CFD0CD",
"T  c #D4D2CE",
"R  c #D9D5CE",
"E  c #CFCED1",
"W  c #D1CFD1",
"Q  c #CFD1D3",
"!  c #D5D4D4",
"~  c #D9D6D4",
"^  c #D6D8D5",
"/  c #DBD9D6",
"(  c #D6D6D9",
")  c #D9D7DA",
"_  c #D7D9DB",
"`  c #DCDBDC",
"'  c #E0DCD6",
"]  c #E1DEDC",
"[  c #DEE0DD",
"{  c #E4E0D7",
"}  c #E2E1DE",
"|  c #DDDDE1",
" . c #E1DFE1",
".. c #DEE1E3",
"X. c #E2E2E2",
"o. c #E8E3E1",
"O. c #E4E4E8",
"+. c #E9E7E8",
"@. c #E9E8E9",
/* pixels */
"! ( ! Q ( _ ( | ( n : L ( | | ! _ ` _ ) ` ` ~ ~ F 7 [ / | ` ..` ` ` ` X.` / } F 9 S ` } [ } ` ` } _ X._ ` ` I 7 M _  .) ! _ ` _ ",
"( ( | _ _ _ _ _ ` m 2 ! ` | ` _ ( ` ` ( ` ` _ ] J 9 ! / X.` ( [ ..X.|  .) _ [ b q D / ` ..X.X. .} ^ ..[ X.] J 0 k ` ( |  .~ _ X.",
"( ( ( _ ( | | _ ` M 9 _ _ | | X.` | | ` | | ) _ H 8 P X.| X.X.` ` ` ` ` ! ` [ c 9 K X.X.| ` | ] } ` | `  .] b 8 c X.) ` X.` _ _ ",
"( ( ( _ ! ) ) ! ) x 9 ! ` X.` ! _ ` ` _ ` ` ) ` J q J [ ~ ` o./ X.X.|  ._ [ / k 2 J / } [  . .X.} ] X.} ] ' g r 9 / ` ) ~ ] ` ` ",
"s x g x g d u g i q r M c g m B C S S M v n x k 3 < i b J D V S M S M H S C M r 1 l c v V S b V b z b b C z 7 4 4 S P S M F b M ",
"V k p b S H n V V l l l V b B z 9 j b c c k p r t t a g k k j r 8 p a g k j k r a b c c c l 8 e j j k k k k y a k k v g w 4 2 p ",
"~ x i P ! | ) | | ~ Y J P W U ! r S ^ ] } } ` T B n T X.[ [ ` r S [  ...X...[ _ W ` ] } ` R f B X.} ` ` } [ [ } ^ ^  .~ S 4 a } ",
"Y p d | _ | ( | _ ( ! ! ( ` E ~ a K X.] ` X. .] o.] ] | ..X.} 9 n ..X.| X.X.X.X. . .` X.X.` i B | ....` X.[ ..| ` ` `  ./ 9 t / ",
"P 7 d ` `  .| | | ( ! Q Q ( ^ ( t T ] ~ ] `  .]  .` ` X. .~  .8 x ^ ] ` X._ X...o.X.X.} } I t V O. .` [ ` X.X.` [ ` ` ] U r g ` ",
"! 9 x ) ` | ` ` | ( ( ( | ` ^ ! q T ' ' ] ] X.( ` X.X.`  .} R 0 a ! ` } @.o.X.X.` X...X.[ ^ i j ` ` ` ` ] ` X.} _ O. ._ ! j b ` ",
"J r k T ` ` ` ] ( W | ( _ ! ` ! 8 U } ] ] )  .] ] ` ] ] +.] g 6 b ^ } ` _ ` @.[ } X.[ X.} K t f ` [ [ ..` ` ` ` ..X._ ` / k x ) ",
"V 8 0 k U ^ ` ` ' U H J T ^ ~ J 1 K { } ] ' ] ' ' ~ ] ] ' K q 0 a R / ~ o.} [ } } / [ / [ z w y T T R R ^ _ ] ] ^ / ^ I Z r c ` ",
"u q a p r 8 q q 2 8 2 3 3 4 5 1 8 r 4 : : 1 2 2 0 3 q q 9 r p t e f l f f l b j e t f f l e 0 0 a a a t q q 0 0 3 0 q a t w w 3 ",
"P U ^ ! ` ~ U H o.R w 4 Z R ^ ^ ~ ^ I T ^ / R I l 0 g U R P K c z I R I ' ' R I y 0 y F K T J P I I I U R R R A 0 l K I C Z U I ",
"X.` ~ _ _ ` ` X./ ^ i 6 R ` ` _ ( ! _ _ ` ` _ ` { a a / o.X.X.^ / ` ] ] ' } } [ F y S }  .| ! | / _ / ` ` ` ! U e V ! } R ^ ~ ` ",
"` ( ! ..` | ` ` [ ..x 6 ] ~ ` | _ ` ` ` _ ` ` X./ a k ` / X.` }  . .X...| X...O.I f ! ` X._ ..| X.` ` ` `  .` W 4 T ` ( ! ` ) ) ",
"` _ _ | _ `  .( ! ` b a } ^ ! ` _ ( ` ) ( ( ` ` ] g t ` } ` | X...X.` ` X.` [ [ J g ] ` | | | | ` X.| X._ ` ] H 3 B U ^ ~ | ` ( ",
"_ ` | X.` ) ` ` ] } V l I ! ^ _ ! ( | ~ ) ! | X.] f f ] | X.+.] [ o.} / [ } X./ V a ~ ] | | ` ` | | ! _ ` ] X.H e 0 l ' ) ! ` _ ",
"` ` _ ~ ! ` ] ~ ~ ~ a c ^ ] T ` } ~ ! ~ ' ! ~ ` K e a R _ ] X./ / o.} [ } } } } B f ~ o.) ` ' ] } ] ` } ] ` / S e 4 e I ] _ _ ] ",
"v k j a i g s q r g r i r b b t t b B c g i g l r w 8 a M b c z l M c S S l z V j 0 f V V S l j S J J K V b b k 4 3 1 t l x g l ",
"t 9 j S J K J J n D b B V g i q q q i J U g g K V J A M K K l t a j c C M j l V l V I K B i 0 j J K J J V b H K I z b J S r t j ",
"V 8 g ~ ' ~ ! ` ' ] ` ~ T ] ' q 3 U ' ` ] ` ' ] } ] } ` ` ] D 0 S ^ [ / ` / [ ` ~ } ~ R ~ N i B ` / R ^ ! ! ^ ] ' R R / T t t Z ",
"P 2 u ! ` ` | | ` ` ( `  .~ ] I 4 ~ ] `  . . .] ` ` ]  . . .D w J / ` / ` } } / ` ] ] ~ R t t A } } ` [ ` | ` | ! X.` / [ f t R ",
"! 7 k _ _ ` | _  .| _ | ) (  .L 2 ^ ` |  .| ` ] ` X.` ` | ] j t ! _ / _ ] ` ` _  ._ ' ] R 4 0 A ` ` [ ` ` ` ` | ` ` ^ _ ^ r t T ",
"a 9 g ! | | | ( | _ ` |  .) ) E 3 P [ ( |  .` X.`  .| .._ ] l 0 K [ ` ` | X.` | ` X.` ` J w 4 F ` ..` | | | | ` | | ` _ ] r q ^ ",
"j 8 g ! ` W ( X.W ] _ ! ! ]  .( 2 D } ` ] ` ^ [ X.] ` ` ] / j a k R [ [ X._ [ } } } ` } / z t B ^ ..` } ..` | ` ` ` X.' U r q F ",
"3 2 r d g g m B ~ I K U R ' L q 1 j I R R R R R T ~ / ` ~ F f i a M A J T T ~ / ~ R ] R ' t 4 , I R ~ ^ ^ ^ ^ ^ } U B t 3 = 0 N ",
"9 p k t 0 a g i 6 3 0 0 3 6 i 0 a a t 0 0 q t q r 8 3 r 0 0 t i a j t r y r 0 4 2 3 , 0 4 4 0 e a f a g g f d t ; 8 q q e q t t ",
"T Q W W P P W W ~ W g 8 n N V P P J J I T T U V V r 0 K R ~ ` U ! ~ ! ( ^ ! ~ T e e q g a D I ~ R T U U P I I V 3 K W W I U I I ",
"_ ! ( _ ( W ( ( ) ] P r G ( W | | ! ! Q ! ) ~ ) T r : I ! U ( W ! ( _ _ ( ! ~ ! 9 8 U U ~ ~ [ ^ ^ ` ` | _ _ ` J 5 W W E W ! W W ",
"( _ _ ( ! ( | ( ) W ) 9 G ` | Q ! ( ( ( ! ! ( ( T g < ! ] ` ) | ` | ( ( _ ` ` ! 2 2 ~ ` ! ` ( ( ( ` | | ` ` ^ M 8 W ( ( | | ~ U ",
"E ( ( ! ! _ ( ( W W ( > m ~ ! ) ( _ ( ( ^ ^ ! ) ^ b ; V T ] ) | _ ` | _ | ` ` P t 1 _ ( | ...._ ..` ` ` ( ^ J p 8 P ) ) Q W ) W ",
"( ( ( Q ! ( _ ( ! ! T > c ! ( ( ) ` ! ( ! ` ! ! ~ p 7 b ^ ^ _ | ( | | ( | ( | | a ; ! _ | ` .._ | _ | | ` ! / B r ) ` W ( | ( ( ",
"P Y P H G L ( ( ) ^ H 7 a H P ! J T _ ! ~ ^ ! ^ K 5 : h R _ ` ` ` _ | ( | | | ( w 3 T [ _ _ _ ..X...` ( _ ~ R l 5 P _ ( | ! ` ! ",
"s 9 8 9 8 2 9 q u q 8 : : 8 9 s k p r 8 9 8 q q : ; 2 9 u p d d x d n n M x s s < 4 g a r 9 9 y d x h d k d j 3 6 k x x v h h 9 ",
"H v 7 d H b m H G M v H H H H H H 8 - 2 u a d a t a c v k x h 9 - < x n H H m V V V V n j x l y 9 n M n v v M l g b x b M d : o ",
"^ P 2 9 P ` ) ( ` ( ! ` | `  .) ] a 5 H / o.] ` ] ~ / }  .` ^ T 8 j ] ` | } _ / ] ` ` ~ ` ` / f x ` O.} [ [ } } ` } X.O.O.` 9 x ",
") W - 5 P ) ( ( | _ | ( ` `  .| ( s 9 ` ]  .) ` ` ` } } ` ] X.] 3 c } | ` X.} [  ._ | ` ` ) ' 5 x ` } } } [ ` [ X...| | | ..5 ! ",
"_ H - s ! ^ )  .~ _  .( ` ` ` ` ( d s | ` ` ` X.` ` ] ` ` X.} P 5 b | ` _ | X.` ..` ` ) ] ( ` 6 v [ [ ..X.X.[ ` ` ` | ..X. .> P ",
"( G - d R _ ` _ ` ` ` ` _ X.( ` ` a a ` / / ' / ` ` |  .` | ` U 7 M ` | | | .._ ` ` ` ! ] ` ! 5 C ..` } ` ..| ..} X.X.` ` ) 9 I ",
"! d & r ^ _ | _  ._ ` ) ` ) ` ` ] s q _ _ } _ ` X./ _ [ _ o.] K 5 k ` [ ( ` ` |  .! ( ` ` ~ ! > H ` X.| X.` ` } ` X.` | ` X.> U ",
"H 7   + p v H L b n x x J H P P ! r - a S K S J H L T b S J J a ; a J J c c x g b V L V H D q < a T ` ! H c c M c V x M P M ; S ",
"& & & : > + X + - * # . @ o o : * : : 2 : 4 8 8 1 1 2 2 = 2 2 2 1 6 8 2 : , 3 : = * $ % & - : : 7 9 3 1 2 5 8 1 3 3 < 5 < : 8 t ",
"L G v L / ^ Q Q ! L 5 % S J ! P J a h K T ^ / T ' b 3 < 2 : j D I U P ^ / ~ T c 2 , 6 b D D T K K T R / } ` T b = V D T ! K ~ T ",
"! ( ( ` ` ( ` ` ` ) W 9 ` | ) ` ] V H ` [ ^ } } / I < J G ~ ' ] ]  .` ` ` ..O./ J 3 J ] ~ ] ] ^ / / } ` ) _ } T 3 ' / ` ~ ( ` ` ",
"| | ` ` _ | _ ( ( X.G < ` ~ X.( _ ` ) ~ [ [ ! ! / K 5 ! ` ` X._ ` X.X.O.| | X.| b 6 V !  .` ! ] ` ` ` ] X.O.+.~ 6 U ! ` ( | | ] ",
"( ! ^ ) ! ^ / _ ~ ! M < ` ' ~ ! ) ` ~ ` ` ~ _ +./ S < X.~ ` ^ O.X._ }  .| | | | N 8 b ` ] W ` ` / X.X. .` ` ` ! 8 ] ^ ( X.` ! | ",
"_ ! _ _ ^ ^ / / T ~ n 6 ~ ` / ` ~ / ` ] ^ ] ] ^ ^ a : ^ ` X._ ` } ~ ` ` ` X.| X.V 3 V ' ` o.! } [ X.[ ` [ } ` ! > U / _ _ _ X._ ",
"_ E d J ` ) ) ) ' G 5 0 U ] R ] _ ` ` ~ ] ~ ` ` U : 0 ! ] ) X._ W X.H k / } ] _ 3 6 g K ]  .`  ./ o.[ } _ ^ } T : S ! ~ ! ` ) _ ",
"8 8 # * 0 6 q s 6 6 < 5 s m n N M V B V n l H x G < , q V K V P V c a 2 9 r a 9 1 6 0 a b V V b S C v v M S k 7 , t t 9 a g k g ",
"M 9 2 * = : 6 5 < 6 0 0 6 0 3 = ; * q g q u l i t a 0 t b n 8 8 ; q l y z c c c b j f l i 0 3 , 8 a M b m S v M J Y T H T t ; $ ",
"^ q * 2 z R ~ N G G J L K U L n , $ J ~ ~ ] ) ( ` / c H ~ ` ` n 8 R } R / ^ K ^ } ` ~ ] I z g 0 M ^ ` ) ` ` ^ } [ ! / ^ / 0 1 l ",
"! H > d U ~ ! T W ( ( W W ( W W 6 > ! ` ) | _  .) | !  . .| @.U < ` ` ] _ } X.X._ X.` ` ' ' I 5 S ^ T ! ` ` ` _ | _ |  .` q 2 U ",
"| L - H ` ` ` W ( ( W E ) ) ( | 6 q ~ ( | | | ` O.| ( _ | | ) E ; ` ~ ` | ` ` ` `  .` ` ` ' K 2 D } / `  .! ( ! | | ( ( ~ p < K ",
"( M > ^ U W | W ( ( ! W ( ) Q ( 3 6 W _ | ( ` ^ ( _ .. .| | ( W 6 ` ` ) o...` X.X.^ ` X./ ~ V 0 S ^ ^ _  .` ` ( ( ` ] ` X.k < B ",
"_ C > Q ^ U _ ! ! ! _ ) ! ) ` W a < W ( | ( ^ [ _ ( ( X.| |  .x 4 V / ] _ ^ o.^ ` / } / ' / b , M T ] ! ( ) ( ` ! ( ^ ^ ` a : J ",
"H p > d K H H L V J B L J m B g 2 r H ! ^ ^ ~ ~ W ~ ` _ ] ] G < 3 3 l F I U K T J ! R ~ K f 3 0 i B I T I U V K J K G f q , 0 N ",
"> 9 9 u r t p r i a a q : 5 < < 9 9 u r 9 r p d 9 8 q 9 6 6 2 < r 3 q q 0 q 0 i i q 8 a a t q f i g g g a g g g 6 s c g N f 0 N ",
"! ! ! P Y ! T P K J W g < K W _ U P U ! T ^ I T / I l q V ' U U c c K ~ ~ ! L U P v b ~ ' L V J R ~ U T ~ T ' U 8 G ~ ! R G f V ",
"| W ! ! ( ! W ) ] ( ] n > ! ! ! ! ! ! ( ! _ ) ! U / D , c ! T ) ^ T ^ ~ T T ! ] T k c ` ' ` ` ` ) ' ] ] ~ J ! H < x ! ~ ~ ~ G R ",
"E Q  .( ! _ ! ) ! T ^ M > W ) ! _ ! ! ! W ( ~ ! ~ ~ V < L ) ) ) ~ T ' ) ! W ) ) ` c b ` _ ` ` ` ) ] ` ` W L ( J 8 i W W ! W W G ",
"( ( ( W ! ` ` ( ( _ ^ H : M ( ! ! Q ( ) ( ) ( ( ~ ! V 2 I W ! ) ) ! W W L P W W W g M ` ` ] _ ) ` ( ! ) ( W  .` q 0 U U W U ( U ",
"( ( ( ( ( ! ! ) ! | } T 8 m ! ( ( ! _ ! W ! ! ( ( ) G 6 V R W ! W U U R W W ' ) ] l b ~ ~ ] ` ` X.` ) ` ]  .] ) l i R ~ ) G P U ",
"W ` ! ( ^ ! ` ^ _ ` ! S : a U ( ! U ! ^ ! ) ! ! ! W G 5 i V B W ~ R W R R W ' W W q p U ! ` ^ / _ ~ ! ~ W ] ~ ] i 6 V U ~ R G P "
};
