/* XPM */
static char *Free_Converter_com_stena_5_1000x560_77354512[] = {
/* columns rows colors chars-per-pixel */
"64 64 256 2 ",
"   c #0D0C0B",
".  c #0A0707",
"X  c #140C0C",
"o  c #1A0D0D",
"O  c #150606",
"+  c #18120D",
"@  c #190E13",
"#  c #1B1413",
"$  c #171516",
"%  c #081815",
"&  c #220E0C",
"*  c #26150D",
"=  c #221313",
"-  c #2C1C1B",
";  c #281817",
":  c #331D1B",
">  c #381918",
",  c #301210",
"<  c #2B221C",
"1  c #3D241D",
"2  c #35231C",
"3  c #141827",
"4  c #391C22",
"5  c #291B23",
"6  c #2B2624",
"7  c #352324",
"8  c #392828",
"9  c #3B322D",
"0  c #3A2B32",
"q  c #29353A",
"w  c #3C3736",
"e  c #2D2C35",
"r  c #1E2E2E",
"t  c #461B18",
"y  c #571D19",
"u  c #47231D",
"i  c #58251B",
"p  c #55321F",
"a  c #64281B",
"s  c #4B1E23",
"d  c #422522",
"f  c #452A25",
"g  c #4A2B25",
"h  c #4C2C29",
"j  c #46292A",
"k  c #532D2B",
"l  c #582A26",
"z  c #4B312C",
"x  c #46322B",
"c  c #54332C",
"v  c #5B332D",
"b  c #573729",
"n  c #462D34",
"m  c #4B3535",
"M  c #483837",
"N  c #5C3532",
"B  c #5A3A34",
"V  c #523C3B",
"C  c #5B3D3B",
"Z  c #563735",
"A  c #542E34",
"S  c #672B26",
"D  c #6C3325",
"F  c #6C332B",
"G  c #65362C",
"H  c #74392E",
"J  c #78352B",
"K  c #672E34",
"L  c #6C3533",
"P  c #643A34",
"I  c #6C3B34",
"U  c #633C3B",
"Y  c #6A3C3B",
"T  c #663436",
"R  c #733533",
"E  c #733B34",
"W  c #7B3B34",
"Q  c #743C3A",
"!  c #7B3D3B",
"~  c #7B3637",
"^  c #722E2D",
"/  c #38423C",
"(  c #5C433C",
")  c #55423C",
"_  c #47433B",
"`  c #64433D",
"'  c #6C433C",
"]  c #684639",
"[  c #7B4235",
"{  c #74423C",
"}  c #7C433C",
"|  c #76483B",
" . c #7B4A37",
".. c #2A3946",
"X. c #483A44",
"o. c #5A3B42",
"O. c #663C43",
"+. c #793D42",
"@. c #394149",
"#. c #464549",
"$. c #594646",
"%. c #554E53",
"&. c #6C4344",
"*. c #6C4B45",
"=. c #6C4B4C",
"-. c #644747",
";. c #734542",
":. c #7D4342",
">. c #744B44",
",. c #7C4B44",
"<. c #734C4B",
"1. c #79494A",
"2. c #6C524B",
"3. c #7B5343",
"4. c #74524C",
"5. c #7C534B",
"6. c #78594B",
"7. c #6A4C52",
"8. c #774E51",
"9. c #6C5554",
"0. c #745553",
"q. c #7A5353",
"w. c #7A5A58",
"e. c #645B63",
"r. c #6F6269",
"t. c #605B60",
"y. c #833D2D",
"u. c #833D3A",
"i. c #863B36",
"p. c #834335",
"a. c #8B4535",
"s. c #84443C",
"d. c #8C443B",
"f. c #854A3C",
"g. c #8B4A3C",
"h. c #894A36",
"j. c #944B3C",
"k. c #9A4C3C",
"l. c #934838",
"z. c #89513E",
"x. c #9C523E",
"c. c #96523E",
"v. c #8B432E",
"b. c #A5553E",
"n. c #A34C3B",
"m. c #833F42",
"M. c #834442",
"N. c #8C4442",
"B. c #844B44",
"V. c #8C4B43",
"C. c #844C4B",
"Z. c #8B4C4B",
"A. c #884449",
"S. c #934644",
"D. c #934B44",
"F. c #9B4C44",
"G. c #934C4A",
"H. c #9C4E4B",
"J. c #964746",
"K. c #8D5245",
"L. c #85534C",
"P. c #8C524B",
"I. c #8B5A4B",
"U. c #845646",
"Y. c #945344",
"T. c #9B5344",
"R. c #9C5A45",
"E. c #94534B",
"W. c #9B544B",
"Q. c #955A4C",
"!. c #9C5B4C",
"~. c #935946",
"^. c #874D52",
"/. c #974E52",
"(. c #8B5452",
"). c #845B53",
"_. c #8C5B54",
"`. c #865857",
"'. c #935451",
"]. c #9B5551",
"[. c #955B53",
"{. c #9C5B53",
"}. c #995A5A",
"|. c #A34D45",
" X c #A25445",
".X c #A45A45",
"XX c #AB5A44",
"oX c #A3554B",
"OX c #A45B4B",
"+X c #AB5C4C",
"@X c #AA5648",
"#X c #A35552",
"$X c #A45C53",
"%X c #AB5D52",
"&X c #A25C5A",
"*X c #AA5A58",
"=X c #B25D51",
"-X c #99624E",
";X c #8A6255",
":X c #88645A",
">X c #936354",
",X c #9D6454",
"<X c #9C645C",
"1X c #996B5B",
"2X c #95675B",
"3X c #9B725D",
"4X c #A3614C",
"5X c #AC624D",
"6X c #AA6548",
"7X c #B3644C",
"8X c #B5674B",
"9X c #A46253",
"0X c #AC6254",
"qX c #AC6954",
"wX c #A5635A",
"eX c #AC635B",
"rX c #A46B5C",
"tX c #AC6A5B",
"yX c #A46854",
"uX c #B36454",
"iX c #B96553",
"pX c #B46B54",
"aX c #BA6C54",
"sX c #B2655A",
"dX c #B46B5B",
"fX c #BA6D5B",
"gX c #BA665C",
"hX c #BC735B",
"jX c #B97458",
"kX c #A8705F",
"lX c #876666",
"zX c #986863",
"xX c #997266",
"cX c #937076",
"vX c #A76862",
"bX c #B46C63",
"nX c #BB6E62",
"mX c #A77569",
"MX c #BC7364",
"NX c #B87667",
"BX c #B37D71",
"VX c #805861",
"CX c #C3745C",
"ZX c #C47A5C",
"AX c #C8785A",
"SX c #C26E55",
"DX c #C37564",
"FX c #C47B63",
"GX c #C87B68",
"HX c #C1786C",
"JX c #AE816E",
"KX c #C7815E",
"LX c #CA8269",
"PX c #D3866A",
"IX c #D78A74",
"UX c #C98375",
/* pixels */
"B <.>.Y ;.;.Y >.+.^.(.(.zXzX<XvXI._.2X2X`.% $.0.0.-.-.o.7.-.7.-.o.o.$.C o.$.$.-.7.$.0 o.9.m m $.$ &.B.L.'.P.P.Z.^.}.wX&XeXvX&XG.",
"y K A.K Q Q C./.} P.~.Q.$XtXbXOXwX&X$X<X`.# O.A.C.C.G O.>.L._.zXzX`.^.q.`.lX`.q.lX`.>.g 5.I.I O.%.+.M.C.m.! ,.! E p.Y.Y.Y.4X4X!.",
",.:.l Q I { P.P.L.C.} } H ^ $XvXyX$X%XwX(.# +.N.g.J W f.V.wXf.G.1.A.C.} E L Q ,.,.s.Z.>.U.g.! >.X.q.[ R Z.} G ).!.T.OX@Xx.k.j.j.",
"Q M.M.L 1.B.R ~ G.Z.u.N.N.H.#XF.Q.oXF.W.| $ Y d.G.~ m.N.u.Z.E.M.u.! R H } B.s.E S &XA.I P /.'.8.X.,.W.E.J.V.Q.V.F.D. XoXoXoX*X%X",
"}.:.:.:.v l Z.Z.N.W.#XV.f.B.V.{.oXoXJ.E.:Xw &.W R +.C.+.L S +.~ M.Z.'.].{.].[.[.,.N.}.`.l ! ^.8.e 8.G.V.#XH.W.V.T.F.j.D.j.F.W.E.",
"!.W.wX{.K.wXf.G.&X{.&X].G.! i G ^ i.u.m.`.#.A l S ^.{ L L l :.^.Z.+.M.^.^.m.+.A._.Z.u.+.{ M.^.-.9 ,.R.qXnXfXMXfXoXT.D.j.j.T.F.j.",
"NXMXMXbXBXvXNXHXNXNXbX<X].'.Q G ;.q.q.` O.e 5 j d h $.Z o.=.B 9.lX8.7.<.7.=.=.8.$.O.O.-.N d j - %.:.R.!.{.OXqX*X<X}.[.Z.M.Q G l ",
"+ o O o O @ # + # X # = o @ 5 = * = # = M @.$     .   $   . @ X       . .       .   @ $ X X   q ..$ & . O = . O O O O O X X X O ",
"K K l U U +.- O.L.C.B.C.B.:.,.} P v k N &.=.Y N o.&.C &.1.Y Y >.1.-.  N ` x $.n A C ` <.' U P *.`.Y , : 7 6 = ; * 1 v Z n   ^.M.",
"2XW E.W.B.[.* Z j.wX%XOXuX$Xj.d.I R B.^.L L ;.{ ,.L R ~ G.G.E.u.'.O.X ^.Q k , k M.&XeXeX#XoXJ.D.H.].Z.! L E Q ^ u.} u.K O.O M.g.",
"Q.W.Y.{.V.Z.2 x i.a.T.OXOXoXOX$XG.N.s.M.Z.B.u.E ^ } E.].W.].#X#XN.8.9 1.f.G.Z.P.V.E.W.oX%XsX$X!.g.Y.N.B.f.{.tXoXN.V.[ ,.Z + ,.Y.",
"#X*XJ.m.~ +.0 O.].J.S.S.N.$X*XS.%X@X|.|.*XsX*XsXtX*XW.H.J.#XH./.N.q._ L.9X{.bX{.M.G.$X$X*X$X].].[.].}.vX$XW.$XeXG.G.f.'.o.# /.*X",
"*XG.M.C.Y K M o.B.M.M.A.} R W Q.OXOXuXdXOXoXeXMXMX*XsX].d.s.Z.B.s.&.< { a.S.#X$X].]./.l.S.H.&XeX*X$X$X$X$XW.oXbX*X&XV.+.=.+ ~ H.",
"} W F W I +.$.) } W H ^ W u.d.d.#XoXoX*X*XOXW.E.gX@XoXF.d.g.D.Y.m.<.#.A.J.*X].$X{.E.f.i.d.s.p.W T.$XeX$X$XT.a.h.W.Y.W.C.w.6 { K.",
"Y s.(.M.Z./.M s R a S ~ u.i.H.#Xm.N.i.d.&X].u.M.i./.J.W.H.S.i.G.M.&.#.1.L._.[.vX'.E.E.Z.'.Z.'.wXZ.}.bX[.Z.V.Z.P.'.'.].zXe.w Y [ ",
"o ; X ; = ; @.$ - 8 8 8 m h 7 g 2 : 1 8 1 2 2 < 5 < - 7 8 7 j x z X.r 8 - 2 8 t & : 2 - 7 : < - 7 = 7 7 7 : 4 7 ; < 4 0 %.q j k ",
">XB.Q.I.U ` ' { L.>.[.[.1XU.Q.I.P.2X3.,.}.$ j O.P <.5.L.:XxX;X>.^._.L.Q ' ;.&.=.m h h B =.$.A d e w B.f.b B x x h v Y (.}.;.*.<.",
"%X5X+Xj.} ~ E.eXtXMXtXsX+XdX+XOX%X0X%Xd.!.0 ! i.j.D.W.].bXeX&XY.P.Y.#X{.s.{.f.u.[.<XZ.R F R } Q -.*.#X Xj.D.W ~ S W E.0XOXg.d.D ",
"j.OXY.!.[ s.V.f.V.z.R.9XY.!.4XR.0X4XR.T.K.%.I s.[ G.f.Y.M.E.Q.E.;XU.B.!.vXz.!.{.!.{.E.V.f.s.s.s.9.] H. XR.%X0XsX!.j.g.+XhXaXpXdX",
"s.!.{.u.f.[ P.[.].$XtX*XgXoXoX+XT.F.%XoXE.%.I H.G.].V.! ! } C.R F s.E.{.bXvX$XeX0XOXW.eX*X#XG.E.Z c J.|.j. X!.0XF.F.i.T.+XOXn.@X",
"!.D.T.0XT.0X0X{.eX$X#X$XS.@X%X@XW.oXoXJ.Q.r.{ W.H.E.W.{.W.f.[.E.'.&X].V.s.f.NXbXMXHXdXgXdX0X%X@XC c  X@X.XXX@X5X*Xd.J D.!.qX5XY.",
"9Xj.W.T.@Xn. XbX9XOXg.g.g.Y.g.Y.s.D.D.!.Q.e.I W.k.T. XdXOXoX$XsXeXY.eXvXNX!.V.R.5XjXdXpXqXpXqX+X*.b a.x.b.b.XXb.uXT.j.j.j.c.x.XX",
"S S } wXdXsXV.~ } S R } } } M.s.:.Q M.V.wXe.| j.H.D.G.J.*XbXNXbXtXvXW.tXNXBXeXdXwXtXeXqXbXMXMXMXY u W T.$X=XsXuXDXnXW.~ f.0X=XgX",
"@ $ X & h c x 5 8 8 8 ; ; ; 7 : 4 : - > , 3 x v c B Z h g N B *.>.` Y k N >.;.P ' >.>.U ' ' { ' X.$ h B c d z ) g u z f d u f f ",
"x M x 9 M $ $ $ M O.;.5.I.>XI.6.;X;X2X2X2X).3.;X1XxX-X>X1X>XI.I.L.6.#.3XU.).0.7.` -.b -.) -.( $.9.( -.-.-.0.B $.*.4.:X;XI.3 = ; ",
"` C O.d Z m 7 5 v R i.OXiXSXhXhXFXDXjXtX0XMXpXfXNXIXKX6XMXnXsX4XW.I.r.dXeX9Xf.i u.}.&X}.~ i S F R i y l t t g N Q W Y.D.Q.0 t t ",
",.C.[.L Q &.X.w [ V.k.7XCX8XSX8XaXaXhX.XfXfXhXx.9XpXqXKXqX9XR.4XY.B.$.yX5Xx.-Xp..X.Xy.j..XOXyXc..XOXNX4Xh.f.H y [ Y.a.!. .%.| I.",
"G.[.} } R ;.$.#.P.W.F.OXpXiXSXhXhX5X5X0X+XOX0XuXl.hXhX4XDXGXuXj.$XL.n !.5XiXXXFX8XFXAXZXCXpXaXb.XXiXAXGXhXT.qXy.[ F.%X].(.r.,.W.",
"G.s.D h.g.L.-.#.Q.D.F.Y.dXGXDXhXhXGXDXhXT.oXsXUXMXfXhX5XR.T.+XiXF.Y.= 0XOX7XZXSXaXaXDXpXiXuXuXiXeXF. X+XhX+X%X+XW. Xi.u.:.e.K.F.",
"M.! Z.V.E._.0.e.9XT.j.J p.OXk.l.l..XqX!.T.Y.tXqXz.NXyXH D OXOX.X@X[ o Y.c.7XCXAXSX8XAXSXAX8X8XAXiXCXaXCXAXb.8X7XR.k.@XY.z.e.D 4X",
"h U zX2X`.0.$.%.vX&XV.S i E W f.K.B.^ M.E S i D i l | W ! W G.T.oX[.@ S V.j.R.DXAXSXhXZXhX7XXXaXCX7XiXAXIXAX%X%X$X0X!.H I X.P {.",
"+ = o ; + $ e e + > ; +   # o o o = = o - # = o ; # = ; , 4 > v G c 3 4 > N ] { ' ] B P Y P P v v B ] ` ) : ; ; g U C m V %.; : ",
"0 0 n M M $.-.7.$.o.M V V M M o.m x M 7 5 3 v v 8 u >.).:X3XxX>X).:XB b ' *.q.&.3.>.5.6.5._.5.6.% k ' 5.,.3.Q.!.-X3X3X3X1X3X3XJX",
", 1 1 t T :.;.+.;.Y L Y ;.:.,.[.K ' L.:.8 6 E.M.F.*X+X@X6XNXtXtX5XjXhXFXFXLXjXMXhXDXnXMXDX+XuXY.$ F [ V.wXtXaXfXhXDXNXNXUXUXLXMX",
" .H R E D L +.Q Q +.s.^ f.&X#Xi.R F /.S.1.$.a.|.Y.v.FXLX5XpX0XuXMXGXqXUXLXhXMX6Xb.8XaXZXAX7X=X-XM M.j.T.|.XXAXfXMX.XqXqXyXp.Q.NX",
"G.&X&X'.;.l g g Q E Z.M.'.].N.u.:.:./.G.o./ Y.i.!.tXOX!.9XY.tXsXqXbXbXMXdXhXCXAXjXfXdXjXZXaX+XP./ M.j.oX%Xc. XsXhXLXpX4Xa.&X9XrX",
"L C.(.E.N.N.E.}.G.E.vXH.V.f.W s.<Xf.i.W.q.w Y.|.W.D.s.eXp.i a i P S a F rXGXnX=Xd.MXY.h.dXk.J Y e.C..Xk. X5XR.NXjXhXqXT.OXY.} H ",
"I S f.*X#X@X@X XbX XG.F.g.u.p.!.&X!.oXF.5.Z l.|.Y.D s.p.g.$Xf.D i P v t l l } V.y.a !.D p.oXg.U.w M.k.b.@X6XqXg.,.K.V.V.K.B.} | ",
"`.q.5.zXmXzXzXmXzX2X_.(.L.zXzXmX<X3.I P.w.X.yXT.[ i D E #XsXMXMX>XI.B.i u y i H s.S l i F D.vXE.9 A.,XV.G.I.D H { L } } B.} A.:.",
"  . @ = = 5 6 ; < 8 6 M 7 7 5 0 8 < 8 9 X.q v k c : u Z B ' b g > t 4 > ; ; 8 j h d 4 = = v t ( q ;.G Y K > N k ; , h *.h u u 1 ",
"xX_._.;X| ).q.M e { ] =.L.6.`.5.2X;X1X<X1XzX1X2XxXxXxXzXxXxXxX;XzX).#.#.6.| ).2.>.6.0.w.r.w.6.:XlXlX0.q.4.2.0.*.4.-.2.*.q.q -.;X",
"ZXZXZXaXqXaXW.[ u J v.W.OXl. XpXdXdXiXSXdXDXhXOXAXPXLXZXLXjXiX7XOXg.4.&.0X5XbXrXmXJXmXmXBXJXBXJXmXxXmXmXzXvXzX2X!.Q.'.W.Z.C ^ l.",
"hXCXAXhXaXdX9XU.n g.V.m.a.l.E.~.5XaXaXFXaXpXpX8XfXLXLXLXFXMXnXgXqX[ *.` c.R.%XF.z.,X>X-X1XrXrXrX<X,XrXrX!.{.P.Q.OXQ.G.g.g.9.} g.",
"CX7XaXaXaXiXtXI.2.Y.j.G. X.X4X5XqX5X5X5XNX9XhX5X,XNXFXhX5XjXqXY.,Xg.=.&.#XT.u.i.J d.G.G.G.E.'.&X#X&X@X#XF.S.H.F.F.V.G.F.G.$.Q OX",
"8XXXiXpX7XXX0X>Xw.W.j.F.7X7X5XpXdXGXT.OXY.eX4XT.D [.,XOXT.OXf.H W.Y.*.P p.D.m.y.W ^ W s.W ! } '.G.T.W.F.$XD.$XW.|.D.F.k.F.2.:.!.",
"OX+X@XR.j.i.i.I.&.+X0XW.XX+Xj.J j.T..Xg.g.p.OX5X:.L i i F B.E.D.J uX).v p.g.i.J s.J J W W H F ! p.p.j.Y.4XqXOX4XXXW.l.k.g.4.[ c.",
"y.a.J p.Y.+X$X1X:X5X4XV.j.l.d.Y.V.V.f.} { H R f.a i l v i a j.c.d.OXzXv ^ E N.a.V.~ u.d.s.s.R R ~ ! u.F.J.eXF.{.#XW.W.%XJ.C K j.",
"> h V ) x Z m 8 e g z m z 1 4 m 8 : & o + # o * = = # # 8 f B g C ] t.$ : - 8 g d : d > > f 1 : 8 j 4 : j 1 z z Z V g , 4 r 7 > ",
"3.I.I.>XI.1X;XxXzXq.xX2XI.mX1X1X,X1XrXI.}.8 9.yX;X_.;X:X:X:X0.0.4.2XlX:X:X4.w.9.0.4.0.4.).5.3.I.o.$ _ V x V #.V M ) m C ) $.m n ",
" XDXfX5XiX+X0X0XdXR.v.c.8XaXZXFXLXFXAXpXuX2.L.DXMX+XT.k.j.%Xf.H.[.[ F i G ] i i t v v E B.eX~.NXlXw 7.q.0.;.U ;.&.<.<.<.7.w.q.w.",
"OX5X8XCX5XfX4X5XY.yX!.$XbXeXFXFXKXjXAX6X+X` 3.fX=XfXdXhX5XY.Y.T.Y.!.s.g.I.yXf.a l u u i [ z.H yXcX$.q.,.L.A.{ B.C.P.L.L.C.C.1.5.",
"uXT.DXOX XfXdXOXXXOX0X*XtXOXpXPXLXZX8X6X@X&.{ dX8X6XhXZXLXZXjXjX+XuX@X%X%X$XoXj.F } B.P.J E.W s.9.M 5.:.f.Y.B.B.P.Z.B.P.P.M.! ! ",
"pX$X+X5X.Xk..XfXaXXX=XoXtXFXjXiXuX%XuXXXnX' I b.+Xk. X.XMXGXDXpXDXpXZX5X6XjXjXKXDX5X5Xk.OXa.V.H w.w 5.Z.N.d.Z.E.E.V.V.E.{.W.E.G.",
"T. XiXpX7X7X7X7XqXfX5Xa.h.,XNXOXg.Y. X.Xk.] p R.+XuXT.4XdXfXFXhXAXAXKX8X8XjXKXjXAXPXjXXXhXhX9XD w.M 1.Z.Z.Z.'.'.'.G.Z.Z.E.Z.Z.E.",
"d.J j.eXY.qXF.!.yXjXDXqXh.i D D H f.0XOX*X( u J 6XXX6Xx.6XZXAXAXCXAXaXGXKXCXIXIXPXPXPXaXfX@XOXf.$.w =.8.`.`.w.w.q.=.=.&.4.<.<.q.",
"j 8 d , f , c c g l ' ' ` ; 4 4 *.>.] B &.3 $ , l T &.B ` P 3.I | ] | | ] 3.3.6.3.6. .z.F  .{ l 8 % - = 2 < 6 8 6 6 6 6 9 6 7 6 ",
" .z.,.<.&.{ ,.` 8 L._.>.G ] | | I P { | | | ] P b c 8 = # X       O   9 ;.I ` P B ( ( B Z C ( Z w.4.*.2.2.*.-.0.-.-.$.( ' 6 M [.",
"jXaXuXH.d.n.k.~ N F.+XT.*XoXuX@X%XoXOX@XOX$X0XsXyXK.I l s u d d z A f >.wXfXNXNXDXDXMXGXGXGXgX0XeXdXwXY.<Xi u u S I ].,XbXB U #X",
"qX7XaXOXk.XXb.s.( Y.c.x.@XXX|.F.j.k.T. Xx.Y.k.T.~.yXQ.I.5.' v ] f g h ] qX8XjX7XpXaXAXAXSX6XGXaXuX@XOX$XK.I.' i | I.~.$XoX*.U !.",
"$X.X7X+Xb.n.F.A.( W.l..XF.j.i.J.F. XOXT.OXT.c.Y. XwX].].zX2X,.,.&.O.-.Y sXXXfXiXDXqXjXjXaXZXuXiXOXqXMXsXbXbXW.G.L R N.&X#XZ h W.",
"W.|.XX=X@Xn.k.m.C F.F.oXoXh.i.A.a.k.k.j.OX0XOX%X0X!.].$XE.vXvXI.B.} Y ' *X=X0X%XD.tXNXY.tXOXE.i.W.W.T.uXfXfXiX=X!.V.V.{.W.) A oX",
"a.l.l. XXXn.F.u.U F.l.T.F.j.l.W.|..X+XOXOXOXx.j.Y.R.9XtX~.yXvX,XyXf.P l Y.Y.R.!.G.D [ E.K.!.D.bXdX7XhXpX6X6XZXZX+XR.a.z.f.w.&.T.",
"S.F.n.S.F.|.D.:.x ~ S ~ ~ G.F.H.J.d.S.s.s.d.D.Y.Y.wX[.wX$XmXmXNX,XZ.&.k G.d.g.i.*Xp.i.N.R ^  X+X@XuX0X+X5XPX7XDXGX7X%XD.D.( Z F.",
"h l G g g p u e % , ; = j g l l N g g d > > f B N N Y ' P *.<.0.*.7.w - h G G E f.U.v P <.L.U.f.B.| Q I B.[.}.<XrX!.W.V.~ 0 $ u "
};
